# xmcd
#
# Track frame offsets: 
#        150
#        23079
#        33690
#        47772
#        61955
#        84841
#        110385
#        133904
#        163092
#        175951
#        207450
#        235268
#        256451
#        274991
#        291608
#        312644
#
# Disc length: 4319 seconds
#
# Revision: 2
# Processed by: cddbd v1.5.2PL0 Copyright (c) Steve Scherf et al.
# Submitted via: ExactAudioCopy v1.1
#
DISCID=f710dd10
DTITLE=Gospel Songs And Spirituals - Gospel Songs And Spirituals - Oh 
DTITLE=Happy Day CD3
DYEAR=2001
DGENRE=Gospel
TTITLE0=The Edwin Hawkins Singers - Oh Happy Day
TTITLE1=Mahalia Jackson - Nobody knows The Trouble I´ve Seen
TTITLE2=Etta James, Joyce Shulman, Jack Jackson, David Thompson - Down
TTITLE2=By The Riverside
TTITLE3=Mahalia Jackson - Up In Jerusalem
TTITLE4=Sister Rosetta Tharpe - What Are They Doing In Heaven
TTITLE5=The Myra Walker Singers - I Am Redeemed
TTITLE6=Cissy Houston - Without God
TTITLE7=Chicago Mass Choir - You Love Me
TTITLE8=The Doris Akers Choir - Everytime I Feel The Spirit
TTITLE9=Dallas Fort Worth Mass Choir - Jesus I Love You
TTITLE10=Chicago Mass Choir - Restore
TTITLE11=The New Jersey Mass Choir - Praise Him
TTITLE12=Dallas Fort Worth Mass Choir - I Heard The Voice
TTITLE13=The Myra Walker Singers - Soon And Very Soon
TTITLE14=The Tennessee Gospel Society - That Old Time Religion
TTITLE15=The Johnny Thompson Singers - Bye And Bye
EXTD=
EXTT0=
EXTT1=
EXTT2=
EXTT3=
EXTT4=
EXTT5=
EXTT6=
EXTT7=
EXTT8=
EXTT9=
EXTT10=
EXTT11=
EXTT12=
EXTT13=
EXTT14=
EXTT15=
PLAYORDER=
